<svg xmlns="http://www.w3.org/2000/svg" width="1200" height="630" viewBox="0 0 1200 630" fill="none">
  <rect width="1200" height="630" fill="#F5F3EA"/>
  <path d="M0 418C158 332 302 306 432 340C578 378 708 499 897 494C1017 491 1118 444 1200 389V630H0V418Z" fill="#2F5E2A"/>
  <path d="M0 474C139 395 268 370 387 394C495 417 597 494 760 518C936 543 1077 496 1200 441V630H0V474Z" fill="#7FBF4D" opacity=".8"/>
  <circle cx="990" cy="132" r="74" fill="#B87333" opacity=".85"/>
  <circle cx="1076" cy="220" r="34" fill="#8A5A2B" opacity=".78"/>
  <path d="M180 213C235 150 284 118 327 117C343 163 330 225 286 281C246 331 182 361 96 370C112 307 139 255 180 213Z" fill="#2F5E2A"/>
  <path d="M146 406C220 376 275 328 312 262" stroke="#7FBF4D" stroke-width="16" stroke-linecap="round"/>
  <text x="470" y="248" fill="#2A321F" font-family="Iowan Old Style, Palatino Linotype, serif" font-size="64" font-weight="700">
    PACH NW At Home Oasis
  </text>
  <text x="470" y="316" fill="#55614A" font-family="Avenir Next, Trebuchet MS, sans-serif" font-size="28">
    Permaculture landscaping, edible gardens, and calm backyard transformations
  </text>
</svg>
