<svg xmlns="http://www.w3.org/2000/svg" width="1200" height="820" viewBox="0 0 1200 820" fill="none">
  <rect width="1200" height="820" rx="40" fill="#F5F3EA"/>
  <rect x="70" y="86" width="1060" height="648" rx="32" fill="#E7E0D0"/>
  <rect x="116" y="138" width="196" height="110" rx="14" fill="#8A5A2B"/>
  <rect x="336" y="138" width="284" height="110" rx="14" fill="#B87333"/>
  <rect x="644" y="138" width="172" height="110" rx="14" fill="#7F6A53"/>
  <rect x="840" y="138" width="244" height="110" rx="14" fill="#9B7B59"/>
  <rect x="116" y="270" width="284" height="110" rx="14" fill="#9B7B59"/>
  <rect x="424" y="270" width="172" height="110" rx="14" fill="#8A5A2B"/>
  <rect x="620" y="270" width="244" height="110" rx="14" fill="#B87333"/>
  <rect x="888" y="270" width="196" height="110" rx="14" fill="#7F6A53"/>
  <rect x="116" y="402" width="172" height="110" rx="14" fill="#7F6A53"/>
  <rect x="312" y="402" width="244" height="110" rx="14" fill="#9B7B59"/>
  <rect x="580" y="402" width="196" height="110" rx="14" fill="#8A5A2B"/>
  <rect x="800" y="402" width="284" height="110" rx="14" fill="#B87333"/>
  <rect x="116" y="534" width="244" height="110" rx="14" fill="#B87333"/>
  <rect x="384" y="534" width="196" height="110" rx="14" fill="#7F6A53"/>
  <rect x="604" y="534" width="284" height="110" rx="14" fill="#9B7B59"/>
  <rect x="912" y="534" width="172" height="110" rx="14" fill="#8A5A2B"/>
</svg>

