<svg xmlns="http://www.w3.org/2000/svg" width="1200" height="820" viewBox="0 0 1200 820" fill="none">
  <rect width="1200" height="820" rx="40" fill="#F5F3EA"/>
  <rect x="70" y="86" width="1060" height="648" rx="32" fill="#E4DDCF"/>
  <rect x="112" y="142" width="298" height="94" rx="8" fill="#8E775F"/>
  <rect x="422" y="142" width="210" height="94" rx="8" fill="#6F6355"/>
  <rect x="644" y="142" width="186" height="94" rx="8" fill="#A18769"/>
  <rect x="842" y="142" width="246" height="94" rx="8" fill="#8A5A2B"/>
  <rect x="112" y="254" width="210" height="94" rx="8" fill="#A18769"/>
  <rect x="334" y="254" width="246" height="94" rx="8" fill="#8A5A2B"/>
  <rect x="592" y="254" width="298" height="94" rx="8" fill="#8E775F"/>
  <rect x="902" y="254" width="186" height="94" rx="8" fill="#6F6355"/>
  <rect x="112" y="366" width="246" height="94" rx="8" fill="#6F6355"/>
  <rect x="370" y="366" width="186" height="94" rx="8" fill="#A18769"/>
  <rect x="568" y="366" width="246" height="94" rx="8" fill="#8A5A2B"/>
  <rect x="826" y="366" width="262" height="94" rx="8" fill="#8E775F"/>
  <rect x="112" y="478" width="298" height="94" rx="8" fill="#8A5A2B"/>
  <rect x="422" y="478" width="210" height="94" rx="8" fill="#8E775F"/>
  <rect x="644" y="478" width="186" height="94" rx="8" fill="#6F6355"/>
  <rect x="842" y="478" width="246" height="94" rx="8" fill="#A18769"/>
  <rect x="112" y="590" width="210" height="94" rx="8" fill="#A18769"/>
  <rect x="334" y="590" width="246" height="94" rx="8" fill="#6F6355"/>
  <rect x="592" y="590" width="298" height="94" rx="8" fill="#8E775F"/>
  <rect x="902" y="590" width="186" height="94" rx="8" fill="#8A5A2B"/>
</svg>
